#!OML:ASF E:\motion texture\Top Level 1\Subject 1\Session 1\male.ASF
:FULLY-SPECIFIED
:DEGREES
126
root 15.1358 17.4711 5.82164 439.853 -82.9671 -437.285
lowerback 1.54141 -0.116061 6.13865
upperback -5.25596 0.0120204 -0.769281
thorax -6.36165 -0.365799 -4.24645
lowerneck -12.631 -8.47214 -12.1604
upperneck 8.20382 -9.24684 -0.193265
head 5.06894 -4.94723 1.058
rclavicle 1.78906e-015 -3.18055e-015
rhumerus 39.8291 -52.2729 -16.6882
rradius 120.939
rwrist 10.978
rhand -39.8245 -33.8912
rfingers 7.12502
rthumb -12.7986 -63.4789
lclavicle 1.78906e-015 -3.18055e-015
lhumerus -45.0088 5.8678 68.0327
lradius 51.9487
lwrist -20.024
lhand -12.3544 17.0176
lfingers 7.12502
lthumb 13.7155 46.5456
rfemur -4.02548 -2.53623 25.8169
rtibia 56.0606
rfoot 14.5702 -1.12858
rtoes 4.58976
lfemur -26.1029 -3.90311 -11.4163
ltibia 36.4647
lfoot -10.565 0.324675
ltoes 1.429
127
root 15.0003 17.4577 5.82819 436.333 -82.9466 -433.949
lowerback 1.72304 -0.265307 5.87869
upperback -5.24084 -0.188891 -0.799094
thorax -6.47074 -0.45502 -4.11727
lowerneck -12.5825 -8.61861 -12.2079
upperneck 8.15004 -9.45091 -0.0986876
head 5.06196 -5.03981 1.07695
rclavicle -8.74653e-015 3.97569e-015
rhumerus 41.305 -53.0718 -18.1971
rradius 122.045
rwrist 11.2364
rhand -40.33 -33.9665
rfingers 7.12502
rthumb -13.2859 -63.523
lclavicle -8.74653e-015 3.97569e-015
lhumerus -44.8203 5.95308 68.0168
lradius 51.4957
lwrist -20.3159
lhand -12.2285 17.0728
lfingers 7.12502
lthumb 13.8368 46.5925
rfemur -4.80435 -2.97752 25.7
rtibia 57.6646
rfoot 15.6768 -2.12256
rtoes 4.52895
lfemur -25.6653 -4.33629 -11.6742
ltibia 36.8898
lfoot -11.203 0.335218
ltoes 1.17413
128
root 14.8674 17.4456 5.83277 432.728 -82.891 -430.523
lowerback 1.89292 -0.419361 5.60733
upperback -5.21438 -0.39894 -0.83137
thorax -6.56036 -0.54698 -3.98242
lowerneck -12.5269 -8.76824 -12.2528
upperneck 8.06863 -9.66307 0.0157201
head 5.04663 -5.13413 1.10177
rclavicle 1.0635e-014 0
rhumerus 42.8391 -53.8084 -19.8244
rradius 123.16
rwrist 11.4903
rhand -40.851 -34.0927
rfingers 7.12502
rthumb -13.788 -63.6158
lclavicle 1.0635e-014 0
lhumerus -44.626 6.00419 68.0051
lradius 51.0819
lwrist -20.5549
lhand -12.0984 17.1661
lfingers 7.12502
lthumb 13.9622 46.6772
rfemur -5.5919 -3.44165 25.6178
rtibia 59.2221
rfoot 16.1781 -3.21241
rtoes 4.13314
lfemur -25.2077 -4.80705 -11.9142
ltibia 37.2491
lfoot -11.8056 0.358096
ltoes 0.913498
129
root 14.7369 17.4355 5.83556 429.037 -82.8149 -426.995
lowerback 2.04385 -0.575886 5.31334
upperback -5.17984 -0.616422 -0.874069
thorax -6.62927 -0.640714 -3.84424
lowerneck -12.4694 -8.9228 -12.3006
upperneck 7.97563 -9.88379 0.151557
head 5.02933 -5.23105 1.13306
rclavicle -4.87022e-015 3.18055e-015
rhumerus 44.4187 -54.4784 -21.5606
rradius 124.28
rwrist 11.7389
rhand -41.3863 -34.2172
rfingers 7.12502
rthumb -14.3039 -63.7045
lclavicle -4.87022e-015 3.18055e-015
lhumerus -44.4154 6.00625 68.0002
lradius 50.6909
lwrist -20.7465
lhand -11.9824 17.3209
lfingers 7.12502
lthumb 14.074 46.8244
rfemur -6.39563 -3.93702 25.5457
rtibia 60.7231
rfoot 16.0456 -4.35242
rtoes 3.62331
lfemur -24.7386 -5.30394 -12.1579
ltibia 37.5439
lfoot -12.3711 0.378206
ltoes 0.671165
130
root 14.6087 17.4279 5.83665 425.312 -82.7248 -423.413
lowerback 2.17743 -0.72986 4.98544
upperback -5.14545 -0.83492 -0.92359
thorax -6.68595 -0.73298 -3.69318
lowerneck -12.4074 -9.07839 -12.3671
upperneck 7.88636 -10.1053 0.309579
head 5.01509 -5.32779 1.17379
rclavicle 2.28602e-015 1.03368e-014
rhumerus 46.0239 -55.0651 -23.3716
rradius 125.395
rwrist 12.0014
rhand -41.9328 -34.3708
rfingers 7.12502
rthumb -14.8304 -63.8201
lclavicle 2.28602e-015 1.03368e-014
lhumerus -44.1805 5.96765 68.0107
lradius 50.2949
lwrist -20.9206
lhand -11.8978 17.483
lfingers 7.12502
lthumb 14.1554 46.9807
rfemur -7.21803 -4.46024 25.4732
rtibia 62.1432
rfoot 15.3611 -5.50299
rtoes 3.30031
lfemur -24.2633 -5.80661 -12.4115
ltibia 37.7769
lfoot -12.9003 0.382733
ltoes 0.468111
131
root 14.4828 17.423 5.83637 421.597 -82.6234 -419.813
lowerback 2.28834 -0.875768 4.63268
upperback -5.11802 -1.04731 -0.987461
thorax -6.73409 -0.821373 -3.5431
lowerneck -12.3395 -9.22061 -12.4278
upperneck 7.82588 -10.3101 0.465098
head 5.00815 -5.41735 1.21406
rclavicle 1.17283e-014 -5.56597e-015
rhumerus 47.6085 -55.5608 -25.2135
rradius 126.495
rwrist 12.2932
rhand -42.4874 -34.5497
rfingers 7.12502
rthumb -15.3647 -63.9588
lclavicle 1.17283e-014 -5.56597e-015
lhumerus -43.9032 5.88147 68.0327
lradius 49.8677
lwrist -21.0974
lhand -11.8194 17.6748
lfingers 7.12502
lthumb 14.231 47.1672
rfemur -8.06454 -5.00207 25.3935
rtibia 63.4506
rfoot 14.2715 -6.64059
rtoes 3.40192
lfemur -23.7892 -6.29239 -12.678
ltibia 37.9456
lfoot -13.393 0.36084
ltoes 0.316766
132
root 14.3588 17.4212 5.83486 417.93 -82.5084 -416.23
lowerback 2.37564 -1.01184 4.25494
upperback -5.1014 -1.25084 -1.05897
thorax -6.77684 -0.904546 -3.38732
lowerneck -12.2634 -9.3622 -12.502
upperneck 7.77957 -10.5132 0.625497
head 5.00577 -5.50678 1.25781
rclavicle -8.05078e-015 -2.78299e-014
rhumerus 49.166 -55.9587 -27.069
rradius 127.575
rwrist 12.6134
rhand -43.0239 -34.7383
rfingers 7.12502
rthumb -15.8814 -64.1071
lclavicle -8.05078e-015 -2.78299e-014
lhumerus -43.5776 5.76425 68.0701
lradius 49.392
lwrist -21.3046
lhand -11.775 17.8167
lfingers 7.12502
lthumb 14.2738 47.3061
rfemur -8.93672 -5.55432 25.3078
rtibia 64.6192
rfoot 12.8956 -7.77491
rtoes 3.73586
lfemur -23.3159 -6.74462 -12.9523
ltibia 38.0441
lfoot -13.8434 0.30405
ltoes 0.209759
133
root 14.2368 17.4227 5.83243 414.405 -82.372 -412.764
lowerback 2.45496 -1.13509 3.87665
upperback -5.09986 -1.43942 -1.14051
thorax -6.82821 -0.981226 -3.24254
lowerneck -12.1769 -9.4941 -12.5731
upperneck 7.75151 -10.7039 0.772253
head 5.00637 -5.59165 1.29806
rclavicle 1.31198e-014 -7.95139e-016
rhumerus 50.6556 -56.2591 -28.8947
rradius 128.623
rwrist 12.9483
rhand -43.5417 -34.9291
rfingers 7.12502
rthumb -16.38 -64.2574
lclavicle 1.31198e-014 -7.95139e-016
lhumerus -43.2014 5.61802 68.1127
lradius 48.8586
lwrist -21.5531
lhand -11.7334 17.9406
lfingers 7.12502
lthumb 14.3139 47.4272
rfemur -9.82285 -6.10209 25.2274
rtibia 65.6188
rfoot 11.4067 -8.91592
rtoes 4.47192
lfemur -22.8359 -7.14241 -13.2188
ltibia 38.0687
lfoot -14.2498 0.200006
ltoes 0.153415
134
root 14.1165 17.4277 5.82899 411.117 -82.203 -409.515
lowerback 2.52919 -1.24435 3.51104
upperback -5.11388 -1.61011 -1.22308
thorax -6.89065 -1.05031 -3.10708
lowerneck -12.0397 -9.61319 -12.678
upperneck 7.70739 -10.8826 0.946471
head 4.99689 -5.66989 1.3554
rclavicle 1.39149e-015 -7.95139e-015
rhumerus 52.0581 -56.4593 -30.6561
rradius 129.625
rwrist 13.3061
rhand -44.0432 -35.1454
rfingers 7.12502
rthumb -16.8628 -64.4333
lclavicle 1.39149e-015 -7.95139e-015
lhumerus -42.7855 5.44733 68.1627
lradius 48.2819
lwrist -21.8512
lhand -11.6769 18.0011
lfingers 7.12502
lthumb 14.3683 47.4839
rfemur -10.7152 -6.63525 25.1726
rtibia 66.4366
rfoot 9.83708 -10.0435
rtoes 5.26875
lfemur -22.3406 -7.48079 -13.4553
ltibia 38.0136
lfoot -14.6115 0.0524905
ltoes 0.119258
